Coordinates
version=1
nRows=19
nColumns=63
inDegrees=yes

Units are S.I. units (second, meters, Newtons, ...)
If the header above contains a line with 'inDegrees', this indicates whether rotational values are in degrees (yes) or radians (no).

endheader
time	pelvis_tilt	pelvis_list	pelvis_rotation	pelvis_tx	pelvis_ty	pelvis_tz	hip_flexion_r	hip_adduction_r	hip_rotation_r	knee_angle_r	knee_angle_r_beta	ankle_angle_r	subtalar_angle_r	mtp_angle_r	hip_flexion_l	hip_adduction_l	hip_rotation_l	knee_angle_l	knee_angle_l_beta	ankle_angle_l	subtalar_angle_l	mtp_angle_l	L5_S1_Flex_Ext	L5_S1_Lat_Bending	L5_S1_axial_rotation	L4_L5_Flex_Ext	L4_L5_Lat_Bending	L4_L5_axial_rotation	L3_L4_Flex_Ext	L3_L4_Lat_Bending	L3_L4_axial_rotation	L2_L3_Flex_Ext	L2_L3_Lat_Bending	L2_L3_axial_rotation	L1_L2_Flex_Ext	L1_L2_Lat_Bending	L1_L2_axial_rotation	L1_T12_Flex_Ext	L1_T12_Lat_Bending	L1_T12_axial_rotation	Abs_r3	Abs_r2	Abs_r1	Abs_t1	Abs_t2	neck_flexion	neck_bending	neck_rotation	arm_flex_r	arm_add_r	arm_rot_r	elbow_flex_r	pro_sup_r	wrist_flex_r	wrist_dev_r	arm_flex_l	arm_add_l	arm_rot_l	elbow_flex_l	pro_sup_l	wrist_flex_l	wrist_dev_l
3.100000	-0.370527	-10.570844	97.539069	0.172220	0.959145	0.528033	3.856386	-0.220818	-9.995447	4.072938	0.071086	33.304983	10.407036	0.000000	7.570708	1.100946	-10.404429	10.562660	0.184353	35.897897	10.944637	0.000000	-0.263880	-0.306775	-1.812528	-0.490051	-0.408011	-1.925811	-0.433528	-0.745893	-1.925811	-0.301588	-0.745893	-1.585962	-0.245039	-0.625576	-1.472679	-0.150781	-0.475195	-1.359396	-1.884867	-3.470301	-10.080738	0.000000	0.000000	3.196872	14.855941	9.473114	6.431330	-12.800828	30.745120	58.889518	88.967004	-1.327130	7.375114	0.123800	-13.939724	37.176009	35.368023	73.335046	-10.245883	-7.307493
3.116667	-0.564520	-10.610813	96.897862	0.172449	0.958663	0.527695	4.001503	-0.437539	-9.841671	4.289471	0.074865	33.510625	10.806691	0.000000	7.608600	1.214568	-11.318028	10.754801	0.187707	36.095344	11.298118	0.000000	-0.285715	-0.307785	-1.731021	-0.530601	-0.409354	-1.839210	-0.469401	-0.748349	-1.839210	-0.326543	-0.748349	-1.514643	-0.265315	-0.627635	-1.406455	-0.163257	-0.476759	-1.298266	-2.040832	-3.481726	-9.627419	0.000000	0.000000	3.592599	15.066420	8.060427	5.776784	-12.405206	29.007063	59.007338	88.938250	-0.986223	7.160132	-0.859433	-14.618758	30.151688	37.728066	79.167108	-10.523476	-5.722585
3.133333	-0.716565	-10.623457	96.235951	0.172589	0.958282	0.527199	4.142954	-0.627862	-9.837593	4.566245	0.079696	33.760713	11.448877	0.000000	7.609110	1.279622	-12.332090	10.951485	0.191139	36.313085	11.733280	0.000000	-0.307249	-0.301979	-1.627676	-0.570592	-0.401632	-1.729406	-0.504779	-0.734232	-1.729406	-0.351155	-0.734232	-1.424216	-0.285311	-0.615796	-1.322487	-0.175562	-0.467765	-1.220757	-2.194648	-3.416047	-9.052645	0.000000	0.000000	4.142654	15.153799	6.617065	5.025309	-12.065072	27.128017	59.194032	88.905065	-0.611883	6.862451	-1.572679	-15.104895	25.027870	39.450257	83.699726	-10.586562	-4.280568
3.150000	-0.837099	-10.599809	95.560845	0.172633	0.958038	0.526568	4.271323	-0.794018	-9.809339	4.898096	0.085488	34.016506	12.080218	0.000000	7.553689	1.309911	-13.400357	11.121173	0.194101	36.536733	12.219925	0.000000	-0.330218	-0.290166	-1.505812	-0.613248	-0.385921	-1.599925	-0.542515	-0.705510	-1.599925	-0.377406	-0.705510	-1.317586	-0.306641	-0.591707	-1.223472	-0.188687	-0.449468	-1.129359	-2.358715	-3.282419	-8.374875	0.000000	0.000000	4.844242	15.113370	5.245306	4.215737	-11.783017	25.208847	59.391921	88.863990	-0.351939	6.289680	-1.991542	-15.356061	22.193777	40.419120	86.748281	-10.497044	-2.972758
3.166667	-0.896530	-10.562224	94.899228	0.172523	0.957932	0.525821	4.388187	-0.912158	-9.815431	5.230279	0.091286	34.249075	12.775407	0.000000	7.484884	1.291165	-14.422254	11.280713	0.196886	36.767835	12.662145	0.000000	-0.348100	-0.269518	-1.369637	-0.646456	-0.358459	-1.455239	-0.571893	-0.655307	-1.455239	-0.397843	-0.655307	-1.198432	-0.323245	-0.549602	-1.112830	-0.198904	-0.417484	-1.027228	-2.486441	-3.048844	-7.617509	0.000000	0.000000	5.545547	14.956844	3.931252	3.383741	-11.615706	23.339051	59.644759	88.820013	-0.057037	5.772119	-2.035063	-15.357004	21.849202	40.518629	87.891282	-10.024671	-2.039792
3.183333	-0.900941	-10.496550	94.255548	0.172245	0.958015	0.525010	4.494051	-0.987752	-9.852718	5.586550	0.097504	34.467628	13.500671	0.000000	7.384903	1.221986	-15.461569	11.417741	0.199277	37.002839	13.157244	0.000000	-0.363085	-0.240344	-1.215790	-0.674285	-0.319657	-1.291776	-0.596512	-0.584372	-1.291776	-0.414970	-0.584372	-1.063816	-0.337161	-0.490109	-0.987829	-0.207467	-0.372293	-0.911842	-2.593480	-2.718817	-6.761857	0.000000	0.000000	6.196112	14.715860	2.714774	2.539246	-11.557622	21.531758	59.921324	88.768858	0.200812	5.244494	-1.656787	-15.042463	24.410245	39.599642	86.936789	-9.245786	-1.490300
3.200000	-0.850057	-10.415949	93.650871	0.171799	0.958274	0.524124	4.575671	-1.016680	-9.937317	5.914597	0.103229	34.651700	14.275143	0.000000	7.255870	1.118171	-16.392570	11.500246	0.200717	37.216391	13.573912	0.000000	-0.370848	-0.203038	-1.049941	-0.688701	-0.270041	-1.115562	-0.609266	-0.493668	-1.115562	-0.423842	-0.493668	-0.918698	-0.344369	-0.414036	-0.853077	-0.211902	-0.314507	-0.787456	-2.648929	-2.296811	-5.839457	0.000000	0.000000	6.664920	14.481462	1.696833	1.696983	-11.622203	19.844733	60.206791	88.719213	0.466685	4.795545	-0.805779	-14.429474	30.026412	37.610241	83.469482	-7.966747	-1.516856
3.216667	-0.869878	-10.329044	93.148653	0.171684	0.958493	0.523103	4.579849	-1.081175	-9.931786	6.139554	0.107155	34.819459	14.857539	0.000000	7.101776	1.076820	-17.198933	11.553831	0.201652	37.423064	13.977019	0.000000	-0.373969	-0.179639	-0.932224	-0.694497	-0.238919	-0.990488	-0.614393	-0.436773	-0.990488	-0.427409	-0.436773	-0.815696	-0.347267	-0.366319	-0.757432	-0.213686	-0.278260	-0.699168	-2.671221	-2.032109	-5.184751	0.000000	0.000000	7.001932	14.355177	1.030876	1.039802	-11.614709	18.586587	60.366738	88.673917	0.761975	4.438121	-0.610167	-14.407868	30.390550	37.347178	84.197191	-7.441401	-0.619290
3.233333	-0.882206	-10.235061	92.713783	0.171616	0.958794	0.522049	4.556258	-1.134578	-10.058473	6.331635	0.110508	34.992892	15.564876	0.000000	6.930256	1.028639	-18.005728	11.577385	0.202063	37.620049	14.465251	0.000000	-0.369804	-0.157201	-0.829736	-0.686764	-0.209078	-0.881595	-0.607552	-0.382219	-0.881595	-0.422650	-0.382219	-0.726019	-0.343400	-0.320565	-0.674161	-0.211306	-0.243505	-0.622302	-2.641476	-1.778291	-4.614744	0.000000	0.000000	7.121645	14.285688	0.579930	0.473649	-11.657735	17.627106	60.458498	88.637892	1.011192	4.107606	-0.402724	-14.404264	30.845187	37.084637	84.681550	-7.002646	0.180638
3.250000	-0.885685	-10.132963	92.385343	0.171549	0.959139	0.520900	4.451368	-1.159487	-10.056864	6.400005	0.111701	35.087537	16.022511	0.000000	6.729296	1.000532	-18.534130	11.543945	0.201480	37.756728	14.732094	0.000000	-0.358350	-0.135568	-0.754157	-0.665492	-0.180305	-0.801292	-0.588734	-0.329619	-0.801292	-0.409559	-0.329619	-0.659887	-0.332764	-0.276450	-0.612752	-0.204761	-0.209994	-0.565618	-2.559661	-1.533570	-4.194394	0.000000	0.000000	7.060458	14.256690	0.326463	-0.013496	-11.747441	16.958657	60.510995	88.608164	1.209436	3.875655	-0.239615	-14.419119	31.288119	36.886406	84.950571	-6.660607	0.858068
3.266667	-0.870747	-10.021950	92.187520	0.171453	0.959511	0.519669	4.261928	-1.148658	-10.113848	6.350924	0.110845	35.137864	16.437096	0.000000	6.512742	0.969094	-18.894322	11.490636	0.200549	37.869645	14.942384	0.000000	-0.341269	-0.113871	-0.708085	-0.633771	-0.151448	-0.752341	-0.560672	-0.276865	-0.752341	-0.390037	-0.276865	-0.619575	-0.316903	-0.232205	-0.575319	-0.195001	-0.176386	-0.531064	-2.437653	-1.288128	-3.938158	0.000000	0.000000	6.889416	14.257447	0.171509	-0.452332	-11.869641	16.486236	60.564306	88.578451	1.413947	3.805811	-0.130545	-14.439488	31.642814	36.773102	85.152456	-6.372851	1.431838
3.283333	-0.845046	-9.905569	92.132877	0.171314	0.959886	0.518360	3.973691	-1.102808	-9.959996	6.155643	0.107436	35.067521	16.414484	0.000000	6.281836	0.957960	-18.915386	11.408329	0.199113	37.916360	14.879957	0.000000	-0.319336	-0.093056	-0.695052	-0.593039	-0.123765	-0.738492	-0.524638	-0.226258	-0.738492	-0.364969	-0.226258	-0.608170	-0.296536	-0.189761	-0.564729	-0.182469	-0.144145	-0.521289	-2.280987	-1.052674	-3.865668	0.000000	0.000000	6.668005	14.297935	0.088829	-0.841764	-12.023051	16.230913	60.638983	88.537556	1.541359	3.861237	-0.073529	-14.483853	32.005547	36.752141	85.118512	-6.236660	1.822648
3.300000	-0.811072	-9.788255	92.211190	0.171144	0.960242	0.517012	3.602683	-1.026859	-9.637891	5.835638	0.101851	34.882696	16.003696	0.000000	6.047056	0.963112	-18.648505	11.306326	0.197333	37.900904	14.592495	0.000000	-0.294145	-0.073317	-0.708185	-0.546257	-0.097512	-0.752446	-0.483251	-0.178264	-0.752446	-0.336179	-0.178264	-0.619661	-0.273143	-0.149509	-0.575400	-0.168075	-0.113569	-0.531138	-2.101050	-0.829381	-3.938710	0.000000	0.000000	6.476490	14.334388	-0.014150	-1.215227	-12.203224	16.113900	60.780261	88.488227	1.601828	4.035148	-0.057695	-14.541734	32.352214	36.814035	84.953507	-6.182198	2.048103
3.316667	-0.772776	-9.664930	92.388185	0.171000	0.960592	0.515690	3.169555	-0.928063	-9.180265	5.432099	0.094808	34.598725	15.266641	0.000000	5.806573	0.980725	-18.124985	11.183975	0.195197	37.811518	14.079376	0.000000	-0.268825	-0.055381	-0.736591	-0.499235	-0.073656	-0.782628	-0.441653	-0.134653	-0.782628	-0.307240	-0.134653	-0.644517	-0.249631	-0.112933	-0.598480	-0.153607	-0.085785	-0.552443	-1.920190	-0.626479	-4.096697	0.000000	0.000000	6.361685	14.373467	-0.202967	-1.564898	-12.426317	16.153154	60.998218	88.438247	1.525244	4.259283	-0.042545	-14.620172	32.788752	36.931578	84.534873	-6.242261	2.044985
3.333333	-0.737004	-9.534168	92.694549	0.170833	0.960922	0.514418	2.669599	-0.812180	-8.568803	4.938557	0.086194	34.203170	14.135637	0.000000	5.573638	1.016722	-17.331258	11.063085	0.193087	37.648291	13.348607	0.000000	-0.244819	-0.039002	-0.787921	-0.454654	-0.051872	-0.837166	-0.402213	-0.094829	-0.837166	-0.279804	-0.094829	-0.689431	-0.227339	-0.079532	-0.640186	-0.139890	-0.060414	-0.590941	-1.748719	-0.441195	-4.382179	0.000000	0.000000	6.318964	14.402670	-0.368705	-1.898818	-12.674928	16.295066	61.313920	88.400673	1.472863	4.570440	-0.076930	-14.705901	33.172349	37.146696	84.013867	-6.387646	1.858273
3.350000	-0.712804	-9.411630	93.019506	0.170766	0.961238	0.513274	2.175951	-0.700353	-7.905160	4.437426	0.077448	33.760412	12.882242	0.000000	5.353475	1.064371	-16.458057	10.927631	0.190723	37.406270	12.504709	0.000000	-0.221005	-0.025983	-0.833707	-0.410429	-0.034557	-0.885814	-0.363089	-0.063174	-0.885814	-0.252587	-0.063174	-0.729493	-0.205225	-0.052984	-0.677387	-0.126282	-0.040247	-0.625280	-1.578618	-0.293922	-4.636827	0.000000	0.000000	6.352618	14.385450	-0.699636	-2.207364	-12.988058	16.593687	61.720840	88.385555	1.245553	4.796599	-0.085078	-14.794464	33.625650	37.397038	83.374759	-6.600455	1.467953
3.366667	-0.702400	-9.287284	93.376031	0.170767	0.961532	0.512268	1.672241	-0.592186	-7.137027	3.909613	0.068236	33.268859	11.446534	0.000000	5.137589	1.130209	-15.447118	10.778995	0.188129	37.092024	11.498918	0.000000	-0.199162	-0.015929	-0.881385	-0.369864	-0.021186	-0.936471	-0.327203	-0.038731	-0.936471	-0.227622	-0.038731	-0.771212	-0.184942	-0.032483	-0.716125	-0.113801	-0.024675	-0.661039	-1.422594	-0.180196	-4.901998	0.000000	0.000000	6.451494	14.321370	-1.098950	-2.467549	-13.367619	17.081642	62.212416	88.392819	0.824989	4.848220	-0.084777	-14.898869	34.139881	37.707851	82.543264	-6.883991	0.902367
3.383333	-0.702613	-9.175332	93.725657	0.170865	0.961791	0.511479	1.204363	-0.485881	-6.230346	3.392820	0.059216	32.739250	9.832686	0.000000	4.946913	1.205764	-14.401009	10.627046	0.185477	36.714579	10.400434	0.000000	-0.178460	-0.008967	-0.927254	-0.331418	-0.011927	-0.985207	-0.293192	-0.021803	-0.985207	-0.203962	-0.021803	-0.811347	-0.165718	-0.018286	-0.753394	-0.101972	-0.013891	-0.695441	-1.274721	-0.101442	-5.157109	0.000000	0.000000	6.655584	14.233035	-1.607602	-2.637308	-13.815816	17.783915	62.754115	88.423614	0.249529	4.648636	-0.087296	-15.014109	34.639897	38.078899	81.589297	-7.168464	0.196318
3.400000	-0.706783	-9.071734	94.031888	0.171096	0.962024	0.510929	0.771542	-0.353254	-4.842454	2.871254	0.050113	32.123973	7.655484	0.000000	4.783795	1.273811	-13.406353	10.497168	0.183210	36.308600	9.290277	0.000000	-0.159582	-0.003831	-0.964313	-0.296359	-0.005095	-1.024582	-0.262177	-0.009314	-1.024582	-0.182386	-0.009314	-0.843773	-0.148188	-0.007811	-0.783504	-0.091185	-0.005934	-0.723234	-1.139876	-0.043333	-5.363217	0.000000	0.000000	6.937210	14.140519	-2.172744	-2.725600	-14.328544	18.672085	63.367378	88.475308	-0.568135	4.245856	-0.055485	-15.139785	35.189319	38.481035	80.558403	-7.473705	-0.601764
